<svg xmlns="http://www.w3.org/2000/svg" version="1.1" x="0px" y="0px"
     viewBox="0 0 30 37.5" xml:space="preserve"><g fill="white" transform="translate(-510 -780)"><g xmlns="http://www.w3.org/2000/svg" ><polygon fill="white" points="532,803 515,803 515,792 532,792 532,789 526,789 526,783 512,783 512,807 532,807   "/><polygon
        points="532,788 527,783 527,788   "/><path
        d="M533,802v-9h-17v9H533z M519,800h-1v-1h1V800z M524,796h-3v3h3v1h-4v-5h4V796z M529,796h-3v1h3v3h-4v-1h3v-1h-3v-3h4V796z    "/></g></g>
    <text x="0" y="45" fill="#000000" font-size="5px" font-weight="bold"
          font-family="'Helvetica Neue', Helvetica, Arial-Unicode, Arial, Sans-serif">Created by Hea Poh Lin</text>
    <text x="0" y="50" fill="#000000" font-size="5px" font-weight="bold"
          font-family="'Helvetica Neue', Helvetica, Arial-Unicode, Arial, Sans-serif">from the Noun Project</text></svg>