<svg xmlns="http://www.w3.org/2000/svg" version="1.1" x="0px" y="0px" viewBox="0 0 30 37.5" xml:space="preserve"><g fill="white" transform="translate(-90 -700)"><g xmlns="http://www.w3.org/2000/svg" ><polygon points="112,723 95,723 95,712 112,712 112,709 106,709 106,703 92,703 92,727 112,727   "/><polygon
        points="112,708 107,703 107,708   "/><path
        d="M117,722v-9H96v9H117z M99,720h-1v-1h1V720z M104,716h-3v1h3v3h-4v-1h3v-1h-3v-3h4V716z M110,720h-5v-5h4v4h1V720z     M111,715h1v4h3v1h-4V715z"/><rect
        x="106" y="716" width="2" height="3"/></g></g>
    <text x="0" y="45" fill="#000000" font-size="5px" font-weight="bold"
          font-family="'Helvetica Neue', Helvetica, Arial-Unicode, Arial, Sans-serif">Created by Hea Poh Lin</text>
    <text x="0" y="50" fill="#000000" font-size="5px" font-weight="bold"
          font-family="'Helvetica Neue', Helvetica, Arial-Unicode, Arial, Sans-serif">from the Noun Project</text></svg>